<svg width="106" height="42" viewBox="0 0 106 42" fill="none" xmlns="http://www.w3.org/2000/svg">
<path d="M23.7185 22.2746C24.5611 20.8403 24.9976 19.1549 24.9976 17.2533C24.9976 15.2464 24.5586 13.5231 23.65 12.0186C22.7415 10.5492 21.4599 9.40125 19.7748 8.61254C18.1226 7.78871 16.1355 7.39435 13.8794 7.39435H0V34H7.07546V26.9367H13.3744L17.9221 34H25.5026L20.1123 25.6455C21.6629 24.8217 22.876 23.7089 23.716 22.2746H23.7185ZM15.227 20.8781H8.82657C6.94096 20.8781 5.39035 19.2278 5.39035 17.2209C5.39035 15.214 6.94096 13.5636 8.82657 13.5636H15.227C17.1126 13.5636 18.6632 15.214 18.6632 17.2209C18.6632 19.2278 17.1126 20.8781 15.227 20.8781Z" fill="#2F85A4"/>
<path d="M14.656 14.4226C13.2069 14.4226 12.0268 15.6786 12.0268 17.2209C12.0268 18.7632 13.2069 20.0192 14.656 20.0192C16.1051 20.0192 17.2826 18.7632 17.2826 17.2209C17.2826 15.6786 16.1025 14.4226 14.656 14.4226Z" fill="#2F85A4"/>
<path d="M41.3108 15.2626C39.8794 14.4577 38.2704 14.0579 36.4914 14.0579C34.6414 14.0579 32.9842 14.4847 31.5198 15.3355C30.0555 16.1864 28.8983 17.364 28.0532 18.8631C27.2081 20.3622 26.7842 22.0855 26.7842 24.0303C26.7842 25.9508 27.2131 27.6606 28.0709 29.1597C28.9287 30.6588 30.1392 31.8418 31.7076 32.7062C33.2735 33.5705 35.0956 34.0027 37.1716 34.0027C38.8161 34.0027 40.2728 33.7326 41.5341 33.1924C42.7979 32.6522 43.8461 31.877 44.681 30.8695L41.8742 27.6282C41.2651 28.2521 40.5951 28.7194 39.8617 29.0327C39.1282 29.3433 38.2781 29.5 37.3086 29.5C36.225 29.5 35.2834 29.2893 34.484 28.8707C33.6846 28.452 33.0628 27.8388 32.6238 27.0339C32.3852 26.599 32.2177 26.121 32.1086 25.6131H45.8662C45.889 25.3728 45.9119 25.1161 45.9347 24.8406C45.9575 24.5651 45.9677 24.3193 45.9677 24.1032C45.9677 22.0153 45.5489 20.2218 44.7165 18.72C43.8816 17.2209 42.7497 16.0675 41.3184 15.2626H41.3108ZM34.1389 18.9334C34.8266 18.5147 35.621 18.304 36.5244 18.304C37.4254 18.304 38.2172 18.5147 38.8922 18.9334C39.5673 19.352 40.0977 19.9355 40.4834 20.6783C40.7372 21.1699 40.8971 21.7263 40.9834 22.334H32.0401C32.1289 21.7317 32.2863 21.1834 32.535 20.6972C32.9182 19.9409 33.4537 19.352 34.1414 18.9334H34.1389Z" fill="#2F85A4"/>
<path d="M64.1411 15.2788C62.7757 14.4631 61.2378 14.0552 59.5248 14.0552C57.9919 14.0552 56.6494 14.4145 55.4998 15.1357C54.9567 15.476 54.4745 15.9055 54.0456 16.4106V7H48.7694V33.7137H53.8096V31.4583C54.2664 32.0498 54.7917 32.5414 55.3983 32.9196C56.5479 33.6408 57.9234 34 59.5248 34C61.2378 34 62.7783 33.5867 64.1411 32.7575C65.5064 31.9283 66.5875 30.7722 67.3895 29.2839C68.1889 27.7956 68.5899 26.0426 68.5899 24.0276C68.5899 21.9883 68.1889 20.2245 67.3895 18.7362C66.5901 17.2479 65.5064 16.0972 64.1411 15.2788ZM62.6184 26.8908C62.2022 27.6957 61.6489 28.3115 60.9612 28.7437C60.2734 29.1759 59.4892 29.392 58.6111 29.392C57.7331 29.392 56.9413 29.1759 56.2434 28.7437C55.5429 28.3115 54.9922 27.693 54.5861 26.8908C54.1801 26.0858 53.9771 25.1324 53.9771 24.0303C53.9771 22.9283 54.1801 21.9424 54.5861 21.151C54.9922 20.3595 55.5429 19.7464 56.2434 19.3142C56.9413 18.8821 57.7331 18.666 58.6111 18.666C59.4918 18.666 60.2734 18.8821 60.9612 19.3142C61.6489 19.7464 62.2022 20.3595 62.6184 21.151C63.0346 21.9424 63.2452 22.904 63.2452 24.0303C63.2452 25.1351 63.0371 26.0885 62.6184 26.8908Z" fill="#2F85A4"/>
<path d="M84.5731 15.2626C83.1418 14.4577 81.5328 14.0579 79.7538 14.0579C77.9748 14.0579 76.2465 14.4847 74.7822 15.3355C73.3153 16.1864 72.1606 17.364 71.3155 18.8631C70.4704 20.3622 70.0466 22.0855 70.0466 24.0303C70.0466 25.9508 70.4755 27.6606 71.3333 29.1597C72.1911 30.6588 73.4016 31.8418 74.97 32.7062C76.5358 33.5705 78.358 34.0027 80.4339 34.0027C82.0784 34.0027 83.5351 33.7326 84.7964 33.1924C86.0603 32.6522 87.1084 31.877 87.9434 30.8695L85.1365 27.6282C84.5274 28.2521 83.8575 28.7194 83.124 29.0327C82.3906 29.3433 81.5404 29.5 80.571 29.5C79.4873 29.5 78.5458 29.2893 77.7464 28.8707C76.9469 28.452 76.3252 27.8388 75.8861 27.0339C75.6476 26.599 75.4801 26.121 75.371 25.6131H89.1285C89.1514 25.3728 89.1742 25.1161 89.197 24.8406C89.2199 24.5651 89.23 24.3193 89.23 24.1032C89.23 22.0153 88.8113 20.2218 87.9789 18.72C87.1439 17.2209 86.0121 16.0675 84.5807 15.2626H84.5731ZM77.4012 18.9334C78.089 18.5147 78.8833 18.304 79.7868 18.304C80.6877 18.304 81.4795 18.5147 82.1546 18.9334C82.8322 19.352 83.36 19.9355 83.7458 20.6783C83.9996 21.1699 84.1595 21.7263 84.2457 22.334H75.3024C75.3913 21.7317 75.5486 21.1834 75.7973 20.6972C76.1805 19.9409 76.716 19.352 77.4038 18.9334H77.4012Z" fill="#2F85A4"/>
<path d="M97.3054 7H92.0293V33.7137H97.3054V7Z" fill="#2F85A4"/>
<path d="M106 7H100.724V33.7137H106V7Z" fill="#2F85A4"/>
</svg>
